<svg xmlns="http://www.w3.org/2000/svg" width="249" height="64" fill="none"><path fill="#B6E87D" d="M41 23.615C41 34.873 31.822 44 20.5 44S0 34.873 0 23.615C0 2.11 22.835-4.769 20.5 3.23 14.272 34.195 41 12.357 41 23.615z"/><circle cx="182.5" cy="25.5" r="12.5" fill="#E8967D"/><path fill="#21272C" d="M29.24 19.68v7.04h-7.52V48h-8.88V26.72H5.4v-7.04h23.84zm11.288 9.92c.907-1.307 2.014-2.347 3.32-3.12 1.307-.8 2.667-1.2 4.08-1.2v9.48h-2.52c-1.68 0-2.92.293-3.72.88-.773.587-1.16 1.627-1.16 3.12V48h-8.88V25.44h8.88v4.16zm31.632 6.92c0 .613-.04 1.2-.12 1.76H57.76c.134 1.947.947 2.92 2.44 2.92.96 0 1.654-.44 2.08-1.32h9.4c-.32 1.6-1 3.04-2.04 4.32-1.013 1.253-2.306 2.253-3.88 3-1.546.72-3.253 1.08-5.12 1.08-2.24 0-4.24-.467-6-1.4-1.733-.933-3.093-2.267-4.08-4-.96-1.76-1.44-3.813-1.44-6.16s.48-4.387 1.44-6.12c.987-1.76 2.347-3.107 4.08-4.04 1.76-.933 3.76-1.4 6-1.4s4.227.467 5.96 1.4c1.76.907 3.12 2.213 4.08 3.92.987 1.707 1.48 3.72 1.48 6.04zm-9-2.12c0-.747-.24-1.307-.72-1.68-.48-.4-1.08-.6-1.8-.6-1.573 0-2.493.76-2.76 2.28h5.28zm27.609-9.12c2.586 0 4.6.867 6.04 2.6 1.466 1.733 2.2 4.08 2.2 7.04V48h-8.84V36.04c0-1.067-.294-1.907-.88-2.52-.56-.64-1.32-.96-2.28-.96-.987 0-1.76.32-2.32.96-.56.613-.84 1.453-.84 2.52V48h-8.88V25.44h8.88v3.44a8.072 8.072 0 012.76-2.6c1.173-.667 2.56-1 4.16-1zm10.89 11.44c0-2.373.4-4.427 1.2-6.16.827-1.76 1.947-3.093 3.36-4 1.414-.933 3-1.4 4.76-1.4 1.467 0 2.72.307 3.76.92 1.067.587 1.88 1.4 2.44 2.44V18.4h8.88V48h-8.88v-3.08c-.56 1.04-1.373 1.867-2.44 2.48-1.04.587-2.293.88-3.76.88-1.76 0-3.346-.453-4.76-1.36-1.413-.933-2.533-2.267-3.36-4-.8-1.76-1.2-3.827-1.2-6.2zm15.56 0c0-1.2-.306-2.133-.92-2.8-.613-.667-1.4-1-2.36-1s-1.746.333-2.36 1c-.613.667-.92 1.6-.92 2.8 0 1.2.307 2.133.92 2.8.614.667 1.4 1 2.36 1s1.747-.333 2.36-1c.614-.667.92-1.6.92-2.8zm38.308-11.28l-14.44 33.36h-9.72l5.68-11.92-9.4-21.44h9.88l4.24 11.44 3.96-11.44h9.8zM167 45.72h10.04V48H164.2V20.04h2.8v25.68zm23.596 2.6c-2.053 0-3.907-.453-5.56-1.36-1.627-.933-2.92-2.24-3.88-3.92-.933-1.707-1.4-3.693-1.4-5.96s.48-4.24 1.44-5.92c.96-1.707 2.267-3.013 3.92-3.92 1.653-.933 3.507-1.4 5.56-1.4 2.053 0 3.907.467 5.56 1.4 1.68.907 2.987 2.213 3.92 3.92.96 1.68 1.44 3.653 1.44 5.92 0 2.24-.48 4.213-1.44 5.92-.96 1.707-2.28 3.027-3.96 3.96-1.68.907-3.547 1.36-5.6 1.36zm0-2.44c1.44 0 2.773-.32 4-.96 1.227-.667 2.213-1.653 2.96-2.96.773-1.333 1.16-2.96 1.16-4.88s-.373-3.533-1.12-4.84c-.747-1.333-1.733-2.32-2.96-2.96a8.244 8.244 0 00-4-1 8.24 8.24 0 00-4 1c-1.227.64-2.213 1.627-2.96 2.96-.72 1.307-1.08 2.92-1.08 4.84s.36 3.547 1.08 4.88c.747 1.307 1.72 2.293 2.92 2.96 1.227.64 2.56.96 4 .96zm25.664 2.44c-2.053 0-3.907-.453-5.56-1.36-1.627-.933-2.92-2.24-3.88-3.92-.933-1.707-1.4-3.693-1.4-5.96s.48-4.24 1.44-5.92c.96-1.707 2.267-3.013 3.92-3.92 1.653-.933 3.507-1.4 5.56-1.4 2.053 0 3.907.467 5.56 1.4 1.68.907 2.987 2.213 3.92 3.92.96 1.68 1.44 3.653 1.44 5.92 0 2.24-.48 4.213-1.44 5.92-.96 1.707-2.28 3.027-3.96 3.96-1.68.907-3.547 1.36-5.6 1.36zm0-2.44c1.44 0 2.773-.32 4-.96 1.227-.667 2.213-1.653 2.96-2.96.773-1.333 1.16-2.96 1.16-4.88s-.373-3.533-1.12-4.84c-.747-1.333-1.733-2.32-2.96-2.96a8.244 8.244 0 00-4-1 8.24 8.24 0 00-4 1c-1.227.64-2.213 1.627-2.96 2.96-.72 1.307-1.08 2.92-1.08 4.84s.36 3.547 1.08 4.88c.747 1.307 1.72 2.293 2.92 2.96 1.227.64 2.56.96 4 .96zM244.164 48l-9-9.8V48h-2.8V18.4h2.8v17.52l8.8-9.76h3.92l-10.36 10.88L247.964 48h-3.8z"/></svg>